{
  "source": "C:\\Users\\Peter\\Desktop\\stuff\\MIUN\\quantitative_research\\video_compression\\videos\\BVI-HD\\BVI-HD_CDVL_videos\\ORIG\\Grass_1920x1080_60fps.mp4",
  "output": "C:\\Users\\Peter\\Desktop\\stuff\\MIUN\\quantitative_research\\video_compression\\compressed_videos\\BVI-HD\\hevc\\1\\Grass_1920x1080_60fps_hevc.mp4",
  "codec": "hevc",
  "ok": "Input #0, mov,mp4,m4a,3gp,3g2,mj2, from 'C:\\Users\\Peter\\Desktop\\stuff\\MIUN\\quantitative_research\\video_compression\\videos\\BVI-HD\\BVI-HD_CDVL_videos\\ORIG\\Grass_1920x1080_60fps.mp4':\n  Metadata:\n    major_brand     : isom\n    minor_version   : 512\n    compatible_brands: isomiso2avc1mp41\n    encoder         : Lavf54.28.101\n  Duration: 00:00:05.00, start: 0.000000, bitrate: 655968 kb/s\n  Stream #0:0[0x1](und): Video: h264 (High 4:4:4 Predictive) (avc1 / 0x31637661), yuv420p(progressive), 1920x1080, 655963 kb/s, 60 fps, 60 tbr, 60 tbn (default)\n    Metadata:\n      handler_name    : VideoHandler\n      vendor_id       : [0][0][0][0]\n[out#0/mp4 @ 000002a269c0f040] Codec AVOption b:a (set bitrate (in bits/s)) has not been used for any stream. The most likely reason is either wrong type (e.g. a video option with no video streams) or that it is a private option of some decoder which was not actually used for any stream.\nStream mapping:\n  Stream #0:0 -> #0:0 (h264 (native) -> hevc (libx265))\nPress [q] to stop, [?] for help\n[libx265 @ 000002a268d7c500] Unknown option: \"aq-mode.\nx265 [info]: HEVC encoder version 4.1+190-8f11c33ac\nx265 [info]: build info [Windows][GCC 15.1.0][64 bit] 10bit\nx265 [info]: using cpu capabilities: MMX2 SSE2Fast LZCNT SSSE3 SSE4.2 AVX FMA3 BMI2 AVX2\nx265 [info]: Main 10 profile, Level-4.1 (Main tier)\nx265 [info]: Thread pool created using 12 threads\nx265 [info]: Slices                              : 1\nx265 [info]: frame threads / pool features       : 3 / wpp(17 rows)\nx265 [info]: Coding QT: max CU size, min CU size : 64 / 8\nx265 [info]: Residual QT: max TU size, max depth : 32 / 1 inter / 1 intra\nx265 [info]: ME / range / subpel / merge         : star / 57 / 3 / 3\nx265 [info]: Keyframe min / max / scenecut / bias  : 25 / 250 / 40 / 5.00 \nx265 [info]: Lookahead / bframes / badapt        : 25 / 4 / 2\nx265 [info]: b-pyramid / weightp / weightb       : 1 / 1 / 0\nx265 [info]: References / ref-limit  cu / depth  : 4 / on / on\nx265 [info]: AQ: mode / str / qg-size / cu-tree  : 2 / 1.0 / 32 / 1\nx265 [info]: Rate Control / qCompress            : ABR-1000 kbps / 0.60\nx265 [info]: VBV/HRD buffer / max-rate / init    : 1000 / 1000 / 0.750\nx265 [info]: tools: rect limit-modes rd=4 psy-rd=2.00 rdoq=2 psy-rdoq=1.00\nx265 [info]: tools: rskip mode=1 signhide tmvp strong-intra-smoothing lslices=4\nx265 [info]: tools: deblock sao dhdr10-info\nOutput #0, mp4, to 'C:\\Users\\Peter\\Desktop\\stuff\\MIUN\\quantitative_research\\video_compression\\compressed_videos\\BVI-HD\\hevc\\1\\Grass_1920x1080_60fps_hevc.mp4':\n  Metadata:\n    major_brand     : isom\n    minor_version   : 512\n    compatible_brands: isomiso2avc1mp41\n    encoder         : Lavf62.3.100\n  Stream #0:0(und): Video: hevc (hev1 / 0x31766568), yuv420p10le(tv, progressive), 1920x1080, q=2-31, 1000 kb/s, 60 fps, 15360 tbn (default)\n    Metadata:\n      encoder         : Lavc62.11.100 libx265\n      handler_name    : VideoHandler\n      vendor_id       : [0][0][0][0]\n    Side data:\n      cpb: bitrate max/min/avg: 1000000/0/1000000 buffer size: 1000000 vbv_delay: N/A\nframe=    0 fps=0.0 q=0.0 size=       0KiB time=N/A bitrate=N/A speed=N/A elapsed=0:00:01.23    \nframe=    0 fps=0.0 q=0.0 size=       0KiB time=N/A bitrate=N/A speed=N/A elapsed=0:00:01.80    \nframe=    0 fps=0.0 q=0.0 size=       0KiB time=N/A bitrate=N/A speed=N/A elapsed=0:00:02.33    \nframe=    0 fps=0.0 q=0.0 size=       0KiB time=N/A bitrate=N/A speed=N/A elapsed=0:00:02.84    \nframe=    0 fps=0.0 q=0.0 size=       0KiB time=N/A bitrate=N/A speed=N/A elapsed=0:00:03.37    \nframe=    0 fps=0.0 q=0.0 size=       0KiB time=N/A bitrate=N/A speed=N/A elapsed=0:00:03.92    \nframe=    0 fps=0.0 q=0.0 size=       0KiB time=N/A bitrate=N/A speed=N/A elapsed=0:00:04.43    \nframe=    0 fps=0.0 q=0.0 size=       0KiB time=N/A bitrate=N/A speed=N/A elapsed=0:00:04.95    \nframe=    0 fps=0.0 q=0.0 size=       0KiB time=N/A bitrate=N/A speed=N/A elapsed=0:00:05.48    \nframe=    0 fps=0.0 q=0.0 size=       0KiB time=N/A bitrate=N/A speed=N/A elapsed=0:00:06.02    \nframe=    0 fps=0.0 q=0.0 size=       0KiB time=N/A bitrate=N/A speed=N/A elapsed=0:00:06.59    \nframe=    0 fps=0.0 q=0.0 size=       0KiB time=N/A bitrate=N/A speed=N/A elapsed=0:00:07.10    \nframe=    0 fps=0.0 q=0.0 size=       0KiB time=N/A bitrate=N/A speed=N/A elapsed=0:00:07.65    \nframe=    0 fps=0.0 q=0.0 size=       0KiB time=N/A bitrate=N/A speed=N/A elapsed=0:00:08.17    \nframe=    0 fps=0.0 q=0.0 size=       0KiB time=N/A bitrate=N/A speed=N/A elapsed=0:00:08.69    \nframe=    0 fps=0.0 q=0.0 size=       0KiB time=N/A bitrate=N/A speed=N/A elapsed=0:00:09.22    \nframe=    1 fps=0.1 q=49.8 size=       0KiB time=-00:00:00.01 bitrate=N/A speed=N/A elapsed=0:00:09.72    \nframe=    2 fps=0.2 q=51.0 size=       0KiB time=00:00:00.00 bitrate=N/A speed=   0x elapsed=0:00:10.24    \nframe=    3 fps=0.3 q=51.0 size=       0KiB time=00:00:00.01 bitrate=  21.1kbits/s speed=0.00154x elapsed=0:00:10.79    \nframe=    4 fps=0.4 q=51.0 size=       0KiB time=00:00:00.03 bitrate=  10.6kbits/s speed=0.00294x elapsed=0:00:11.32    \nframe=    4 fps=0.3 q=51.0 size=       0KiB time=00:00:00.03 bitrate=  10.6kbits/s speed=0.00281x elapsed=0:00:11.85    \nframe=    5 fps=0.4 q=51.0 size=       0KiB time=00:00:00.05 bitrate=   7.0kbits/s speed=0.00404x elapsed=0:00:12.37    \nframe=    6 fps=0.5 q=50.1 size=       0KiB time=00:00:00.06 bitrate=   5.3kbits/s speed=0.00517x elapsed=0:00:12.89    \nframe=    7 fps=0.5 q=51.0 size=       0KiB time=00:00:00.08 bitrate=   4.2kbits/s speed=0.00621x elapsed=0:00:13.41    \nframe=    7 fps=0.5 q=51.0 size=       0KiB time=00:00:00.08 bitrate=   4.2kbits/s speed=0.00598x elapsed=0:00:13.93    \nframe=    8 fps=0.6 q=51.0 size=       0KiB time=00:00:00.10 bitrate=   3.5kbits/s speed=0.00692x elapsed=0:00:14.45    \nframe=    8 fps=0.5 q=51.0 size=       0KiB time=00:00:00.10 bitrate=   3.5kbits/s speed=0.00667x elapsed=0:00:14.98    \nframe=    8 fps=0.5 q=51.0 size=       0KiB time=00:00:00.10 bitrate=   3.5kbits/s speed=0.00645x elapsed=0:00:15.50    \nframe=    9 fps=0.6 q=51.0 size=       0KiB time=00:00:00.11 bitrate=   3.0kbits/s speed=0.00728x elapsed=0:00:16.01    \nframe=   10 fps=0.6 q=51.0 size=       0KiB time=00:00:00.13 bitrate=   2.6kbits/s speed=0.00805x elapsed=0:00:16.56    \nframe=   11 fps=0.6 q=47.1 size=       0KiB time=00:00:00.15 bitrate=   2.3kbits/s speed=0.00879x elapsed=0:00:17.06    \nframe=   12 fps=0.7 q=51.0 size=       0KiB time=00:00:00.16 bitrate=   2.1kbits/s speed=0.00948x elapsed=0:00:17.58    \nframe=   14 fps=0.8 q=48.0 size=       0KiB time=00:00:00.20 bitrate=   1.8kbits/s speed=0.011x elapsed=0:00:18.11    \nframe=   15 fps=0.8 q=51.0 size=       0KiB time=00:00:00.21 bitrate=   1.6kbits/s speed=0.0116x elapsed=0:00:18.64    \nframe=   16 fps=0.8 q=51.0 size=       0KiB time=00:00:00.23 bitrate=   1.5kbits/s speed=0.0122x elapsed=0:00:19.16    \nframe=   17 fps=0.9 q=51.0 size=       0KiB time=00:00:00.25 bitrate=   1.4kbits/s speed=0.0127x elapsed=0:00:19.69    \nframe=   17 fps=0.8 q=51.0 size=       0KiB time=00:00:00.25 bitrate=   1.4kbits/s speed=0.0124x elapsed=0:00:20.20    \nframe=   18 fps=0.9 q=46.0 size=       0KiB time=00:00:00.26 bitrate=   1.3kbits/s speed=0.0129x elapsed=0:00:20.73    \nframe=   19 fps=0.9 q=51.0 size=       0KiB time=00:00:00.28 bitrate=   1.2kbits/s speed=0.0133x elapsed=0:00:21.26    \nframe=   20 fps=0.9 q=51.0 size=       0KiB time=00:00:00.30 bitrate=   1.2kbits/s speed=0.0138x elapsed=0:00:21.79    \nframe=   21 fps=0.9 q=51.0 size=       0KiB time=00:00:00.31 bitrate=   1.1kbits/s speed=0.0142x elapsed=0:00:22.31    \nframe=   23 fps=1.0 q=51.0 size=       0KiB time=00:00:00.35 bitrate=   1.0kbits/s speed=0.0153x elapsed=0:00:22.83    \nframe=   23 fps=1.0 q=51.0 size=       0KiB time=00:00:00.35 bitrate=   1.0kbits/s speed=0.015x elapsed=0:00:23.33    \nframe=   23 fps=1.0 q=51.0 size=       0KiB time=00:00:00.35 bitrate=   1.0kbits/s speed=0.0147x elapsed=0:00:23.85    \nframe=   25 fps=1.0 q=51.0 size=       0KiB time=00:00:00.38 bitrate=   0.9kbits/s speed=0.0157x elapsed=0:00:24.37    \nframe=   26 fps=1.0 q=45.1 size=       0KiB time=00:00:00.40 bitrate=   0.9kbits/s speed=0.0161x elapsed=0:00:24.88    \nframe=   26 fps=1.0 q=45.1 size=       0KiB time=00:00:00.40 bitrate=   0.9kbits/s speed=0.0157x elapsed=0:00:25.41    \nframe=   27 fps=1.0 q=51.0 size=       0KiB time=00:00:00.41 bitrate=   0.8kbits/s speed=0.016x elapsed=0:00:25.99    \nframe=   27 fps=1.0 q=51.0 size=       0KiB time=00:00:00.41 bitrate=   0.8kbits/s speed=0.0157x elapsed=0:00:26.52    \nframe=   27 fps=1.0 q=51.0 size=       0KiB time=00:00:00.41 bitrate=   0.8kbits/s speed=0.0154x elapsed=0:00:27.05    \nframe=   27 fps=1.0 q=51.0 size=       0KiB time=00:00:00.41 bitrate=   0.8kbits/s speed=0.0151x elapsed=0:00:27.60    \nframe=   28 fps=1.0 q=51.0 size=       0KiB time=00:00:00.43 bitrate=   0.8kbits/s speed=0.0154x elapsed=0:00:28.11    \nframe=   29 fps=1.0 q=47.7 size=       0KiB time=00:00:00.45 bitrate=   0.8kbits/s speed=0.0157x elapsed=0:00:28.64    \nframe=   30 fps=1.0 q=51.0 size=       0KiB time=00:00:00.46 bitrate=   0.8kbits/s speed=0.016x elapsed=0:00:29.17    \nframe=   31 fps=1.0 q=51.0 size=       0KiB time=00:00:00.48 bitrate=   0.7kbits/s speed=0.0163x elapsed=0:00:29.72    \nframe=   32 fps=1.1 q=51.0 size=       0KiB time=00:00:00.50 bitrate=   0.7kbits/s speed=0.0165x elapsed=0:00:30.24    \nframe=   33 fps=1.1 q=45.3 size=       0KiB time=00:00:00.51 bitrate=   0.7kbits/s speed=0.0168x elapsed=0:00:30.76    \nframe=   34 fps=1.1 q=51.0 size=       0KiB time=00:00:00.53 bitrate=   0.7kbits/s speed=0.017x elapsed=0:00:31.29    \nframe=   34 fps=1.1 q=51.0 size=       0KiB time=00:00:00.53 bitrate=   0.7kbits/s speed=0.0168x elapsed=0:00:31.83    \nframe=   34 fps=1.1 q=51.0 size=       0KiB time=00:00:00.53 bitrate=   0.7kbits/s speed=0.0165x elapsed=0:00:32.36    \nframe=   34 fps=1.0 q=51.0 size=       0KiB time=00:00:00.53 bitrate=   0.7kbits/s speed=0.0162x elapsed=0:00:32.89    \nframe=   34 fps=1.0 q=51.0 size=       0KiB time=00:00:00.53 bitrate=   0.7kbits/s speed=0.0159x elapsed=0:00:33.44    \nframe=   35 fps=1.0 q=51.0 size=       0KiB time=00:00:00.55 bitrate=   0.6kbits/s speed=0.0162x elapsed=0:00:33.99    \nframe=   35 fps=1.0 q=51.0 size=       0KiB time=00:00:00.55 bitrate=   0.6kbits/s speed=0.0159x elapsed=0:00:34.54    \nframe=   36 fps=1.0 q=51.0 size=       0KiB time=00:00:00.56 bitrate=   0.6kbits/s speed=0.0162x elapsed=0:00:35.06    \nframe=   37 fps=1.0 q=45.3 size=       0KiB time=00:00:00.58 bitrate=   0.6kbits/s speed=0.0164x elapsed=0:00:35.58    \nframe=   38 fps=1.1 q=51.0 size=       0KiB time=00:00:00.60 bitrate=   0.6kbits/s speed=0.0166x elapsed=0:00:36.12    \nframe=   38 fps=1.0 q=51.0 size=       0KiB time=00:00:00.60 bitrate=   0.6kbits/s speed=0.0164x elapsed=0:00:36.64    \nframe=   40 fps=1.1 q=50.0 size=       0KiB time=00:00:00.63 bitrate=   0.6kbits/s speed=0.017x elapsed=0:00:37.18    \nframe=   40 fps=1.1 q=50.0 size=       0KiB time=00:00:00.63 bitrate=   0.6kbits/s speed=0.0168x elapsed=0:00:37.71    \nframe=   40 fps=1.0 q=50.0 size=       0KiB time=00:00:00.63 bitrate=   0.6kbits/s speed=0.0166x elapsed=0:00:38.24    \nframe=   41 fps=1.1 q=44.9 size=       0KiB time=00:00:00.65 bitrate=   0.5kbits/s speed=0.0168x elapsed=0:00:38.77    \nframe=   41 fps=1.0 q=44.9 size=       0KiB time=00:00:00.65 bitrate=   0.5kbits/s speed=0.0165x elapsed=0:00:39.31    \nframe=   41 fps=1.0 q=44.9 size=       0KiB time=00:00:00.65 bitrate=   0.5kbits/s speed=0.0163x elapsed=0:00:39.83    \nframe=   42 fps=1.0 q=50.0 size=       0KiB time=00:00:00.66 bitrate=   0.5kbits/s speed=0.0165x elapsed=0:00:40.35    \nframe=   43 fps=1.1 q=50.0 size=       0KiB time=00:00:00.68 bitrate=   0.5kbits/s speed=0.0167x elapsed=0:00:40.86    \nframe=   44 fps=1.1 q=44.5 size=       0KiB time=00:00:00.70 bitrate=   0.5kbits/s speed=0.0169x elapsed=0:00:41.39    \nframe=   44 fps=1.0 q=44.5 size=       0KiB time=00:00:00.70 bitrate=   0.5kbits/s speed=0.0167x elapsed=0:00:41.91    \nframe=   45 fps=1.1 q=50.0 size=       0KiB time=00:00:00.71 bitrate=   0.5kbits/s speed=0.0169x elapsed=0:00:42.43    \nframe=   45 fps=1.0 q=50.0 size=       0KiB time=00:00:00.71 bitrate=   0.5kbits/s speed=0.0167x elapsed=0:00:42.96    \nframe=   47 fps=1.1 q=50.0 size=       0KiB time=00:00:00.75 bitrate=   0.5kbits/s speed=0.0172x elapsed=0:00:43.49    \nframe=   47 fps=1.1 q=50.0 size=       0KiB time=00:00:00.75 bitrate=   0.5kbits/s speed=0.017x elapsed=0:00:44.01    \nframe=   48 fps=1.1 q=44.3 size=       0KiB time=00:00:00.76 bitrate=   0.5kbits/s speed=0.0172x elapsed=0:00:44.53    \nframe=   48 fps=1.1 q=44.3 size=       0KiB time=00:00:00.76 bitrate=   0.5kbits/s speed=0.017x elapsed=0:00:45.06    \nframe=   49 fps=1.1 q=50.0 size=       0KiB time=00:00:00.78 bitrate=   0.4kbits/s speed=0.0172x elapsed=0:00:45.59    \nframe=   49 fps=1.1 q=50.0 size=       0KiB time=00:00:00.78 bitrate=   0.4kbits/s speed=0.017x elapsed=0:00:46.11    \nframe=   49 fps=1.1 q=50.0 size=       0KiB time=00:00:00.78 bitrate=   0.4kbits/s speed=0.0168x elapsed=0:00:46.65    \nframe=   50 fps=1.1 q=50.0 size=       0KiB time=00:00:00.80 bitrate=   0.4kbits/s speed=0.017x elapsed=0:00:47.17    \nframe=   51 fps=1.1 q=50.0 size=       0KiB time=00:00:00.81 bitrate=   0.4kbits/s speed=0.0171x elapsed=0:00:47.71    \nframe=   51 fps=1.1 q=50.0 size=       0KiB time=00:00:00.81 bitrate=   0.4kbits/s speed=0.0169x elapsed=0:00:48.28    \nframe=   52 fps=1.1 q=44.5 size=       0KiB time=00:00:00.83 bitrate=   0.4kbits/s speed=0.0171x elapsed=0:00:48.85    \nframe=   52 fps=1.1 q=44.5 size=       0KiB time=00:00:00.83 bitrate=   0.4kbits/s speed=0.0169x elapsed=0:00:49.44    \nframe=   52 fps=1.0 q=44.5 size=       0KiB time=00:00:00.83 bitrate=   0.4kbits/s speed=0.0166x elapsed=0:00:50.07    \nframe=   52 fps=1.0 q=44.5 size=       0KiB time=00:00:00.83 bitrate=   0.4kbits/s speed=0.0165x elapsed=0:00:50.65    \nframe=   52 fps=1.0 q=44.5 size=       0KiB time=00:00:00.83 bitrate=   0.4kbits/s speed=0.0163x elapsed=0:00:51.23    \nframe=   52 fps=1.0 q=44.5 size=       0KiB time=00:00:00.83 bitrate=   0.4kbits/s speed=0.0161x elapsed=0:00:51.86    \nframe=   52 fps=1.0 q=44.5 size=       0KiB time=00:00:00.83 bitrate=   0.4kbits/s speed=0.0159x elapsed=0:00:52.44    \nframe=   53 fps=1.0 q=50.0 size=       0KiB time=00:00:00.85 bitrate=   0.4kbits/s speed=0.016x elapsed=0:00:53.01    \nframe=   54 fps=1.0 q=51.0 size=       0KiB time=00:00:00.86 bitrate=   0.4kbits/s speed=0.0162x elapsed=0:00:53.56    \nframe=   55 fps=1.0 q=44.2 size=       0KiB time=00:00:00.88 bitrate=   0.4kbits/s speed=0.0163x elapsed=0:00:54.12    \nframe=   56 fps=1.0 q=49.8 size=       0KiB time=00:00:00.90 bitrate=   0.4kbits/s speed=0.0165x elapsed=0:00:54.67    \nframe=   56 fps=1.0 q=49.8 size=       0KiB time=00:00:00.90 bitrate=   0.4kbits/s speed=0.0163x elapsed=0:00:55.21    \nframe=   56 fps=1.0 q=49.8 size=       0KiB time=00:00:00.90 bitrate=   0.4kbits/s speed=0.0161x elapsed=0:00:55.76    \nframe=   56 fps=1.0 q=49.8 size=       0KiB time=00:00:00.90 bitrate=   0.4kbits/s speed=0.016x elapsed=0:00:56.27    \nframe=   56 fps=1.0 q=49.8 size=       0KiB time=00:00:00.90 bitrate=   0.4kbits/s speed=0.0158x elapsed=0:00:56.82    \nframe=   56 fps=1.0 q=49.8 size=       0KiB time=00:00:00.90 bitrate=   0.4kbits/s speed=0.0157x elapsed=0:00:57.38    \nframe=   56 fps=1.0 q=49.8 size=       0KiB time=00:00:00.90 bitrate=   0.4kbits/s speed=0.0155x elapsed=0:00:57.99    \nframe=   56 fps=1.0 q=49.8 size=       0KiB time=00:00:00.90 bitrate=   0.4kbits/s speed=0.0154x elapsed=0:00:58.54    \nframe=   58 fps=1.0 q=50.0 size=       0KiB time=00:00:00.93 bitrate=   0.4kbits/s speed=0.0158x elapsed=0:00:59.09    \nframe=   59 fps=1.0 q=44.1 size=       0KiB time=00:00:00.95 bitrate=   0.4kbits/s speed=0.0159x elapsed=0:00:59.67    \nframe=   59 fps=1.0 q=44.1 size=       0KiB time=00:00:00.95 bitrate=   0.4kbits/s speed=0.0158x elapsed=0:01:00.25    \nframe=   59 fps=1.0 q=44.1 size=       0KiB time=00:00:00.95 bitrate=   0.4kbits/s speed=0.0156x elapsed=0:01:00.77    \nframe=   59 fps=1.0 q=44.1 size=       0KiB time=00:00:00.95 bitrate=   0.4kbits/s speed=0.0155x elapsed=0:01:01.32    \nframe=   60 fps=1.0 q=49.8 size=       0KiB time=00:00:00.96 bitrate=   0.4kbits/s speed=0.0156x elapsed=0:01:01.87    \nframe=   60 fps=1.0 q=49.8 size=       0KiB time=00:00:00.96 bitrate=   0.4kbits/s speed=0.0155x elapsed=0:01:02.43    \nframe=   60 fps=1.0 q=49.8 size=       0KiB time=00:00:00.96 bitrate=   0.4kbits/s speed=0.0154x elapsed=0:01:02.96    \nframe=   60 fps=0.9 q=49.8 size=       0KiB time=00:00:00.96 bitrate=   0.4kbits/s speed=0.0152x elapsed=0:01:03.48    \nframe=   60 fps=0.9 q=49.8 size=       0KiB time=00:00:00.96 bitrate=   0.4kbits/s speed=0.0151x elapsed=0:01:03.99    \nframe=   60 fps=0.9 q=49.8 size=       0KiB time=00:00:00.96 bitrate=   0.4kbits/s speed=0.015x elapsed=0:01:04.53    \nframe=   60 fps=0.9 q=49.8 size=       0KiB time=00:00:00.96 bitrate=   0.4kbits/s speed=0.0149x elapsed=0:01:05.08    \nframe=   60 fps=0.9 q=49.8 size=       0KiB time=00:00:00.96 bitrate=   0.4kbits/s speed=0.0147x elapsed=0:01:05.61    \nframe=   61 fps=0.9 q=50.0 size=       0KiB time=00:00:00.98 bitrate=   0.4kbits/s speed=0.0149x elapsed=0:01:06.17    \nframe=   62 fps=0.9 q=49.0 size=       0KiB time=00:00:01.00 bitrate=   0.4kbits/s speed=0.015x elapsed=0:01:06.76    \nframe=   62 fps=0.9 q=49.0 size=       0KiB time=00:00:01.00 bitrate=   0.4kbits/s speed=0.0148x elapsed=0:01:07.41    \nframe=   63 fps=0.9 q=43.9 size=       0KiB time=00:00:01.01 bitrate=   0.3kbits/s speed=0.015x elapsed=0:01:07.97    \nframe=   63 fps=0.9 q=43.9 size=       0KiB time=00:00:01.01 bitrate=   0.3kbits/s speed=0.0148x elapsed=0:01:08.51    \nframe=   63 fps=0.9 q=43.9 size=       0KiB time=00:00:01.01 bitrate=   0.3kbits/s speed=0.0147x elapsed=0:01:09.09    \nframe=   63 fps=0.9 q=43.9 size=       0KiB time=00:00:01.01 bitrate=   0.3kbits/s speed=0.0146x elapsed=0:01:09.64    \nframe=   64 fps=0.9 q=49.0 size=       0KiB time=00:00:01.03 bitrate=   0.3kbits/s speed=0.0147x elapsed=0:01:10.17    \nframe=   64 fps=0.9 q=49.0 size=       0KiB time=00:00:01.03 bitrate=   0.3kbits/s speed=0.0146x elapsed=0:01:10.74    \nframe=   64 fps=0.9 q=49.0 size=       0KiB time=00:00:01.03 bitrate=   0.3kbits/s speed=0.0145x elapsed=0:01:11.33    \nframe=   64 fps=0.9 q=49.0 size=       0KiB time=00:00:01.03 bitrate=   0.3kbits/s speed=0.0144x elapsed=0:01:11.85    \nframe=   64 fps=0.9 q=49.0 size=       0KiB time=00:00:01.03 bitrate=   0.3kbits/s speed=0.0143x elapsed=0:01:12.36    \nframe=   65 fps=0.9 q=49.0 size=       0KiB time=00:00:01.05 bitrate=   0.3kbits/s speed=0.0144x elapsed=0:01:12.91    \nframe=   65 fps=0.9 q=49.0 size=       0KiB time=00:00:01.05 bitrate=   0.3kbits/s speed=0.0143x elapsed=0:01:13.53    \nframe=   65 fps=0.9 q=49.0 size=       0KiB time=00:00:01.05 bitrate=   0.3kbits/s speed=0.0142x elapsed=0:01:14.13    \nframe=   66 fps=0.9 q=51.0 size=       0KiB time=00:00:01.06 bitrate=   0.3kbits/s speed=0.0143x elapsed=0:01:14.66    \nframe=   67 fps=0.9 q=44.6 size=       0KiB time=00:00:01.08 bitrate=   0.3kbits/s speed=0.0144x elapsed=0:01:15.19    \nframe=   67 fps=0.9 q=44.6 size=       0KiB time=00:00:01.08 bitrate=   0.3kbits/s speed=0.0143x elapsed=0:01:15.79    \nframe=   67 fps=0.9 q=44.6 size=       0KiB time=00:00:01.08 bitrate=   0.3kbits/s speed=0.0142x elapsed=0:01:16.32    \nframe=   67 fps=0.9 q=44.6 size=       0KiB time=00:00:01.08 bitrate=   0.3kbits/s speed=0.0141x elapsed=0:01:16.85    \nframe=   67 fps=0.9 q=44.6 size=       0KiB time=00:00:01.08 bitrate=   0.3kbits/s speed=0.014x elapsed=0:01:17.44    \nframe=   68 fps=0.9 q=50.0 size=       0KiB time=00:00:01.10 bitrate=   0.3kbits/s speed=0.0141x elapsed=0:01:18.04    \nframe=   68 fps=0.9 q=50.0 size=       0KiB time=00:00:01.10 bitrate=   0.3kbits/s speed=0.014x elapsed=0:01:18.61    \nframe=   68 fps=0.9 q=50.0 size=       0KiB time=00:00:01.10 bitrate=   0.3kbits/s speed=0.0139x elapsed=0:01:19.22    \nframe=   68 fps=0.9 q=50.0 size=       0KiB time=00:00:01.10 bitrate=   0.3kbits/s speed=0.0138x elapsed=0:01:19.82    \nframe=   68 fps=0.8 q=50.0 size=       0KiB time=00:00:01.10 bitrate=   0.3kbits/s speed=0.0137x elapsed=0:01:20.40    \nframe=   69 fps=0.9 q=51.0 size=       0KiB time=00:00:01.10 bitrate=   0.3kbits/s speed=0.0136x elapsed=0:01:21.03    \nframe=   69 fps=0.8 q=51.0 size=       0KiB time=00:00:01.11 bitrate=   0.3kbits/s speed=0.0137x elapsed=0:01:21.65    \nframe=   69 fps=0.8 q=51.0 size=       0KiB time=00:00:01.11 bitrate=   0.3kbits/s speed=0.0136x elapsed=0:01:22.22    \nframe=   69 fps=0.8 q=51.0 size=       0KiB time=00:00:01.11 bitrate=   0.3kbits/s speed=0.0135x elapsed=0:01:22.82    \nframe=   69 fps=0.8 q=51.0 size=       0KiB time=00:00:01.11 bitrate=   0.3kbits/s speed=0.0134x elapsed=0:01:23.50    \nframe=   69 fps=0.8 q=51.0 size=       0KiB time=00:00:01.11 bitrate=   0.3kbits/s speed=0.0133x elapsed=0:01:24.09    \nframe=   70 fps=0.8 q=43.6 size=       0KiB time=00:00:01.13 bitrate=   0.3kbits/s speed=0.0134x elapsed=0:01:24.60    \nframe=   70 fps=0.8 q=43.6 size=       0KiB time=00:00:01.13 bitrate=   0.3kbits/s speed=0.0133x elapsed=0:01:25.13    \nframe=   71 fps=0.8 q=48.9 size=       0KiB time=00:00:01.15 bitrate=   0.3kbits/s speed=0.0134x elapsed=0:01:25.66    \nframe=   71 fps=0.8 q=48.9 size=       0KiB time=00:00:01.15 bitrate=   0.3kbits/s speed=0.0133x elapsed=0:01:26.21    \nframe=   71 fps=0.8 q=48.9 size=       0KiB time=00:00:01.15 bitrate=   0.3kbits/s speed=0.0133x elapsed=0:01:26.78    \nframe=   74 fps=0.8 q=43.8 size=       0KiB time=00:00:01.20 bitrate=   0.3kbits/s speed=0.0137x elapsed=0:01:27.29    \nframe=   75 fps=0.9 q=48.9 size=       0KiB time=00:00:01.21 bitrate=   0.3kbits/s speed=0.0139x elapsed=0:01:27.80    \nframe=   75 fps=0.8 q=48.9 size=       0KiB time=00:00:01.21 bitrate=   0.3kbits/s speed=0.0138x elapsed=0:01:28.33    \nframe=   76 fps=0.9 q=50.0 size=       0KiB time=00:00:01.23 bitrate=   0.3kbits/s speed=0.0139x elapsed=0:01:28.83    \nframe=   77 fps=0.9 q=49.0 size=       0KiB time=00:00:01.25 bitrate=   0.3kbits/s speed=0.014x elapsed=0:01:29.36    \nframe=   78 fps=0.9 q=43.5 size=       0KiB time=00:00:01.26 bitrate=   0.3kbits/s speed=0.0141x elapsed=0:01:29.86    \nframe=   78 fps=0.9 q=43.5 size=       0KiB time=00:00:01.26 bitrate=   0.3kbits/s speed=0.014x elapsed=0:01:30.38    \nframe=   79 fps=0.9 q=48.9 size=       0KiB time=00:00:01.28 bitrate=   0.3kbits/s speed=0.0141x elapsed=0:01:30.91    \nframe=   80 fps=0.9 q=50.0 size=       0KiB time=00:00:01.30 bitrate=   0.3kbits/s speed=0.0142x elapsed=0:01:31.41    \nframe=   80 fps=0.9 q=50.0 size=       0KiB time=00:00:01.30 bitrate=   0.3kbits/s speed=0.0141x elapsed=0:01:31.92    \nframe=   80 fps=0.9 q=50.0 size=       0KiB time=00:00:01.30 bitrate=   0.3kbits/s speed=0.0141x elapsed=0:01:32.44    \nframe=   81 fps=0.9 q=43.4 size=       0KiB time=00:00:01.31 bitrate=   0.3kbits/s speed=0.0142x elapsed=0:01:32.98    \nframe=   82 fps=0.9 q=48.7 size=       0KiB time=00:00:01.33 bitrate=   0.3kbits/s speed=0.0143x elapsed=0:01:33.54    \nframe=   82 fps=0.9 q=48.7 size=       0KiB time=00:00:01.33 bitrate=   0.3kbits/s speed=0.0142x elapsed=0:01:34.07    \nframe=   82 fps=0.9 q=48.7 size=       0KiB time=00:00:01.33 bitrate=   0.3kbits/s speed=0.0141x elapsed=0:01:34.60    \nframe=   82 fps=0.9 q=48.7 size=       0KiB time=00:00:01.33 bitrate=   0.3kbits/s speed=0.014x elapsed=0:01:35.15    \nframe=   82 fps=0.9 q=48.7 size=       0KiB time=00:00:01.33 bitrate=   0.3kbits/s speed=0.0139x elapsed=0:01:35.66    \nframe=   82 fps=0.9 q=48.7 size=       0KiB time=00:00:01.33 bitrate=   0.3kbits/s speed=0.0139x elapsed=0:01:36.18    \nframe=   83 fps=0.9 q=49.0 size=       0KiB time=00:00:01.35 bitrate=   0.3kbits/s speed=0.014x elapsed=0:01:36.70    \nframe=   83 fps=0.9 q=49.0 size=       0KiB time=00:00:01.35 bitrate=   0.3kbits/s speed=0.0139x elapsed=0:01:37.22    \nframe=   83 fps=0.8 q=49.0 size=       0KiB time=00:00:01.35 bitrate=   0.3kbits/s speed=0.0138x elapsed=0:01:37.76    \nframe=   83 fps=0.8 q=49.0 size=       0KiB time=00:00:01.35 bitrate=   0.3kbits/s speed=0.0137x elapsed=0:01:38.27    \nframe=   84 fps=0.9 q=49.0 size=       0KiB time=00:00:01.36 bitrate=   0.3kbits/s speed=0.0138x elapsed=0:01:38.80    \nframe=   84 fps=0.8 q=49.0 size=       0KiB time=00:00:01.36 bitrate=   0.3kbits/s speed=0.0138x elapsed=0:01:39.34    \nframe=   86 fps=0.9 q=48.8 size=       0KiB time=00:00:01.40 bitrate=   0.3kbits/s speed=0.014x elapsed=0:01:39.89    \nframe=   86 fps=0.9 q=48.8 size=       0KiB time=00:00:01.40 bitrate=   0.3kbits/s speed=0.0139x elapsed=0:01:40.41    \nframe=   87 fps=0.9 q=49.0 size=       0KiB time=00:00:01.41 bitrate=   0.2kbits/s speed=0.014x elapsed=0:01:40.94    \nframe=   87 fps=0.9 q=49.0 size=       0KiB time=00:00:01.41 bitrate=   0.2kbits/s speed=0.014x elapsed=0:01:41.47    \nframe=   88 fps=0.9 q=48.0 size=       0KiB time=00:00:01.43 bitrate=   0.2kbits/s speed=0.0141x elapsed=0:01:42.00    \nframe=   88 fps=0.9 q=48.0 size=       0KiB time=00:00:01.43 bitrate=   0.2kbits/s speed=0.014x elapsed=0:01:42.54    \nframe=   89 fps=0.9 q=43.2 size=       0KiB time=00:00:01.45 bitrate=   0.2kbits/s speed=0.0141x elapsed=0:01:43.06    \nframe=   89 fps=0.9 q=43.2 size=       0KiB time=00:00:01.45 bitrate=   0.2kbits/s speed=0.014x elapsed=0:01:43.59    \nframe=   89 fps=0.9 q=43.2 size=       0KiB time=00:00:01.45 bitrate=   0.2kbits/s speed=0.0139x elapsed=0:01:44.12    \nframe=   89 fps=0.9 q=43.2 size=       0KiB time=00:00:01.45 bitrate=   0.2kbits/s speed=0.0139x elapsed=0:01:44.64    \nframe=   90 fps=0.9 q=48.0 size=       0KiB time=00:00:01.46 bitrate=   0.2kbits/s speed=0.0139x elapsed=0:01:45.17    \nframe=   91 fps=0.9 q=49.0 size=       0KiB time=00:00:01.48 bitrate=   0.2kbits/s speed=0.014x elapsed=0:01:45.69    \nframe=   91 fps=0.9 q=49.0 size=       0KiB time=00:00:01.48 bitrate=   0.2kbits/s speed=0.014x elapsed=0:01:46.21    \nframe=   91 fps=0.9 q=49.0 size=       0KiB time=00:00:01.48 bitrate=   0.2kbits/s speed=0.0139x elapsed=0:01:46.73    \nframe=   91 fps=0.8 q=49.0 size=       0KiB time=00:00:01.48 bitrate=   0.2kbits/s speed=0.0138x elapsed=0:01:47.26    \nframe=   92 fps=0.9 q=43.0 size=       0KiB time=00:00:01.50 bitrate=   0.2kbits/s speed=0.0139x elapsed=0:01:47.80    \nframe=   93 fps=0.9 q=47.9 size=       0KiB time=00:00:01.51 bitrate=   0.2kbits/s speed=0.014x elapsed=0:01:48.35    \nframe=   93 fps=0.9 q=47.9 size=       0KiB time=00:00:01.51 bitrate=   0.2kbits/s speed=0.0139x elapsed=0:01:48.86    \nframe=   93 fps=0.9 q=47.9 size=       0KiB time=00:00:01.51 bitrate=   0.2kbits/s speed=0.0139x elapsed=0:01:49.38    \nframe=   93 fps=0.8 q=47.9 size=       0KiB time=00:00:01.51 bitrate=   0.2kbits/s speed=0.0138x elapsed=0:01:49.90    \nframe=   94 fps=0.9 q=49.0 size=       0KiB time=00:00:01.53 bitrate=   0.2kbits/s speed=0.0139x elapsed=0:01:50.41    \nframe=   94 fps=0.8 q=49.0 size=       0KiB time=00:00:01.53 bitrate=   0.2kbits/s speed=0.0138x elapsed=0:01:50.95    \nframe=   95 fps=0.9 q=49.0 size=       0KiB time=00:00:01.55 bitrate=   0.2kbits/s speed=0.0139x elapsed=0:01:51.49    \nframe=   95 fps=0.8 q=49.0 size=       0KiB time=00:00:01.55 bitrate=   0.2kbits/s speed=0.0138x elapsed=0:01:52.02    \nframe=   95 fps=0.8 q=49.0 size=       0KiB time=00:00:01.55 bitrate=   0.2kbits/s speed=0.0138x elapsed=0:01:52.57    \nframe=   96 fps=0.8 q=43.1 size=       0KiB time=00:00:01.56 bitrate=   0.2kbits/s speed=0.0139x elapsed=0:01:53.08    \nframe=   96 fps=0.8 q=43.1 size=       0KiB time=00:00:01.56 bitrate=   0.2kbits/s speed=0.0138x elapsed=0:01:53.60    \nframe=   96 fps=0.8 q=43.1 size=       0KiB time=00:00:01.56 bitrate=   0.2kbits/s speed=0.0137x elapsed=0:01:54.13    \nframe=   97 fps=0.8 q=49.0 size=       0KiB time=00:00:01.58 bitrate=   0.2kbits/s speed=0.0138x elapsed=0:01:54.66    \nframe=   97 fps=0.8 q=49.0 size=       0KiB time=00:00:01.58 bitrate=   0.2kbits/s speed=0.0137x elapsed=0:01:55.21    \nframe=   97 fps=0.8 q=49.0 size=       0KiB time=00:00:01.58 bitrate=   0.2kbits/s speed=0.0137x elapsed=0:01:55.76    \nframe=   98 fps=0.8 q=49.0 size=       0KiB time=00:00:01.60 bitrate=   0.2kbits/s speed=0.0138x elapsed=0:01:56.28    \nframe=   98 fps=0.8 q=49.0 size=       0KiB time=00:00:01.60 bitrate=   0.2kbits/s speed=0.0137x elapsed=0:01:56.84    \nframe=   98 fps=0.8 q=49.0 size=       0KiB time=00:00:01.60 bitrate=   0.2kbits/s speed=0.0136x elapsed=0:01:57.38    \nframe=  100 fps=0.8 q=43.0 size=       0KiB time=00:00:01.63 bitrate=   0.2kbits/s speed=0.0139x elapsed=0:01:57.90    \nframe=  101 fps=0.9 q=47.9 size=       0KiB time=00:00:01.65 bitrate=   0.2kbits/s speed=0.0139x elapsed=0:01:58.46    \nframe=  101 fps=0.8 q=47.9 size=       0KiB time=00:00:01.65 bitrate=   0.2kbits/s speed=0.0139x elapsed=0:01:58.98    \nframe=  102 fps=0.9 q=49.0 size=       0KiB time=00:00:01.66 bitrate=   0.2kbits/s speed=0.0139x elapsed=0:01:59.51    \nframe=  103 fps=0.9 q=48.0 size=       0KiB time=00:00:01.68 bitrate=   0.2kbits/s speed=0.014x elapsed=0:02:00.07    \nframe=  103 fps=0.9 q=48.0 size=       0KiB time=00:00:01.68 bitrate=   0.2kbits/s speed=0.014x elapsed=0:02:00.60    \nframe=  103 fps=0.9 q=48.0 size=       0KiB time=00:00:01.68 bitrate=   0.2kbits/s speed=0.0139x elapsed=0:02:01.11    \nframe=  104 fps=0.9 q=43.0 size=       0KiB time=00:00:01.70 bitrate=   0.2kbits/s speed=0.014x elapsed=0:02:01.64    \nframe=  105 fps=0.9 q=48.0 size=       0KiB time=00:00:01.71 bitrate=   0.2kbits/s speed=0.014x elapsed=0:02:02.18    \nframe=  106 fps=0.9 q=48.0 size=       0KiB time=00:00:01.73 bitrate=   0.2kbits/s speed=0.0141x elapsed=0:02:02.72    \nframe=  107 fps=0.9 q=48.0 size=       0KiB time=00:00:01.75 bitrate=   0.2kbits/s speed=0.0142x elapsed=0:02:03.28    \nframe=  107 fps=0.9 q=48.0 size=       0KiB time=00:00:01.75 bitrate=   0.2kbits/s speed=0.0141x elapsed=0:02:03.83    \nframe=  108 fps=0.9 q=42.8 size=       0KiB time=00:00:01.76 bitrate=   0.2kbits/s speed=0.0142x elapsed=0:02:04.37    \nframe=  108 fps=0.9 q=42.8 size=       0KiB time=00:00:01.76 bitrate=   0.2kbits/s speed=0.0141x elapsed=0:02:04.90    \nframe=  109 fps=0.9 q=47.8 size=       0KiB time=00:00:01.78 bitrate=   0.2kbits/s speed=0.0142x elapsed=0:02:05.41    \nframe=  109 fps=0.9 q=47.8 size=       0KiB time=00:00:01.78 bitrate=   0.2kbits/s speed=0.0142x elapsed=0:02:05.94    \nframe=  109 fps=0.9 q=47.8 size=       0KiB time=00:00:01.78 bitrate=   0.2kbits/s speed=0.0141x elapsed=0:02:06.46    \nframe=  109 fps=0.9 q=47.8 size=       0KiB time=00:00:01.78 bitrate=   0.2kbits/s speed=0.014x elapsed=0:02:06.99    \nframe=  109 fps=0.9 q=47.8 size=       0KiB time=00:00:01.78 bitrate=   0.2kbits/s speed=0.014x elapsed=0:02:07.51    \nframe=  110 fps=0.9 q=48.0 size=       0KiB time=00:00:01.80 bitrate=   0.2kbits/s speed=0.0141x elapsed=0:02:08.04    \nframe=  110 fps=0.9 q=48.0 size=       0KiB time=00:00:01.80 bitrate=   0.2kbits/s speed=0.014x elapsed=0:02:08.58    \nframe=  111 fps=0.9 q=48.0 size=       0KiB time=00:00:01.81 bitrate=   0.2kbits/s speed=0.0141x elapsed=0:02:09.12    \nframe=  112 fps=0.9 q=42.8 size=       0KiB time=00:00:01.83 bitrate=   0.2kbits/s speed=0.0141x elapsed=0:02:09.66    \nframe=  113 fps=0.9 q=47.9 size=       0KiB time=00:00:01.85 bitrate=   0.2kbits/s speed=0.0142x elapsed=0:02:10.20    \nframe=  113 fps=0.9 q=47.9 size=       0KiB time=00:00:01.85 bitrate=   0.2kbits/s speed=0.0142x elapsed=0:02:10.73    \nframe=  113 fps=0.9 q=47.9 size=       0KiB time=00:00:01.85 bitrate=   0.2kbits/s speed=0.0141x elapsed=0:02:11.27    \nframe=  114 fps=0.9 q=48.0 size=       0KiB time=00:00:01.86 bitrate=   0.2kbits/s speed=0.0142x elapsed=0:02:11.78    \nframe=  116 fps=0.9 q=43.1 size=       0KiB time=00:00:01.90 bitrate=   0.2kbits/s speed=0.0144x elapsed=0:02:12.30    \nframe=  118 fps=0.9 q=49.0 size=       0KiB time=00:00:01.93 bitrate=   0.2kbits/s speed=0.0146x elapsed=0:02:12.81    \nframe=  118 fps=0.9 q=49.0 size=       0KiB time=00:00:01.93 bitrate=   0.2kbits/s speed=0.0145x elapsed=0:02:13.34    \nframe=  118 fps=0.9 q=49.0 size=       0KiB time=00:00:01.93 bitrate=   0.2kbits/s speed=0.0144x elapsed=0:02:13.87    \nframe=  118 fps=0.9 q=49.0 size=       0KiB time=00:00:01.93 bitrate=   0.2kbits/s speed=0.0144x elapsed=0:02:14.45    \nframe=  118 fps=0.9 q=49.0 size=       0KiB time=00:00:01.93 bitrate=   0.2kbits/s speed=0.0143x elapsed=0:02:14.99    \nframe=  119 fps=0.9 q=48.0 size=       0KiB time=00:00:01.95 bitrate=   0.2kbits/s speed=0.0144x elapsed=0:02:15.58    \nframe=  119 fps=0.9 q=48.0 size=       0KiB time=00:00:01.95 bitrate=   0.2kbits/s speed=0.0143x elapsed=0:02:16.10    \nframe=  121 fps=0.9 q=43.0 size=       0KiB time=00:00:01.98 bitrate=   0.2kbits/s speed=0.0145x elapsed=0:02:16.62    \nframe=  121 fps=0.9 q=43.0 size=       0KiB time=00:00:01.98 bitrate=   0.2kbits/s speed=0.0145x elapsed=0:02:17.14    \nframe=  122 fps=0.9 q=47.7 size=       0KiB time=00:00:02.00 bitrate=   0.2kbits/s speed=0.0145x elapsed=0:02:17.66    \nframe=  123 fps=0.9 q=48.0 size=       0KiB time=00:00:02.01 bitrate=   0.2kbits/s speed=0.0146x elapsed=0:02:18.20    \nframe=  123 fps=0.9 q=48.0 size=       0KiB time=00:00:02.01 bitrate=   0.2kbits/s speed=0.0145x elapsed=0:02:18.72    \nframe=  124 fps=0.9 q=48.0 size=       0KiB time=00:00:02.03 bitrate=   0.2kbits/s speed=0.0146x elapsed=0:02:19.25    \nframe=  126 fps=0.9 q=47.7 size=       0KiB time=00:00:02.06 bitrate=   0.2kbits/s speed=0.0148x elapsed=0:02:19.78    \nframe=  126 fps=0.9 q=47.7 size=       0KiB time=00:00:02.06 bitrate=   0.2kbits/s speed=0.0147x elapsed=0:02:20.32    \nframe=  128 fps=0.9 q=48.0 size=       0KiB time=00:00:02.10 bitrate=   0.2kbits/s speed=0.0149x elapsed=0:02:20.86    \nframe=  130 fps=0.9 q=47.8 size=       0KiB time=00:00:02.11 bitrate=   0.2kbits/s speed=0.015x elapsed=0:02:21.39    \nframe=  130 fps=0.9 q=47.8 size=       0KiB time=00:00:02.13 bitrate=   0.2kbits/s speed=0.015x elapsed=0:02:21.94    \nframe=  130 fps=0.9 q=47.8 size=       0KiB time=00:00:02.13 bitrate=   0.2kbits/s speed=0.015x elapsed=0:02:22.55    \nframe=  130 fps=0.9 q=47.8 size=       0KiB time=00:00:02.13 bitrate=   0.2kbits/s speed=0.0149x elapsed=0:02:23.11    \nframe=  130 fps=0.9 q=47.8 size=       0KiB time=00:00:02.13 bitrate=   0.2kbits/s speed=0.0148x elapsed=0:02:23.66    \nframe=  130 fps=0.9 q=47.8 size=       0KiB time=00:00:02.13 bitrate=   0.2kbits/s speed=0.0148x elapsed=0:02:24.22    \nframe=  131 fps=0.9 q=49.0 size=       0KiB time=00:00:02.15 bitrate=   0.2kbits/s speed=0.0148x elapsed=0:02:24.90    \nframe=  131 fps=0.9 q=49.0 size=       0KiB time=00:00:02.15 bitrate=   0.2kbits/s speed=0.0148x elapsed=0:02:25.56    \nframe=  131 fps=0.9 q=49.0 size=       0KiB time=00:00:02.15 bitrate=   0.2kbits/s speed=0.0147x elapsed=0:02:26.13    \nframe=  131 fps=0.9 q=49.0 size=       0KiB time=00:00:02.15 bitrate=   0.2kbits/s speed=0.0147x elapsed=0:02:26.65    \nframe=  132 fps=0.9 q=48.0 size=       0KiB time=00:00:02.16 bitrate=   0.2kbits/s speed=0.0147x elapsed=0:02:27.25    \nframe=  132 fps=0.9 q=48.0 size=       0KiB time=00:00:02.16 bitrate=   0.2kbits/s speed=0.0147x elapsed=0:02:27.85    \nframe=  132 fps=0.9 q=48.0 size=       0KiB time=00:00:02.16 bitrate=   0.2kbits/s speed=0.0146x elapsed=0:02:28.49    \nframe=  133 fps=0.9 q=42.6 size=       0KiB time=00:00:02.18 bitrate=   0.2kbits/s speed=0.0146x elapsed=0:02:29.10    \nframe=  133 fps=0.9 q=42.6 size=       0KiB time=00:00:02.18 bitrate=   0.2kbits/s speed=0.0146x elapsed=0:02:29.65    \nframe=  133 fps=0.9 q=42.6 size=       0KiB time=00:00:02.18 bitrate=   0.2kbits/s speed=0.0145x elapsed=0:02:30.20    \nframe=  133 fps=0.9 q=42.6 size=       0KiB time=00:00:02.18 bitrate=   0.2kbits/s speed=0.0145x elapsed=0:02:30.71    \nframe=  134 fps=0.9 q=47.9 size=       0KiB time=00:00:02.20 bitrate=   0.2kbits/s speed=0.0145x elapsed=0:02:31.27    \nframe=  134 fps=0.9 q=47.9 size=       0KiB time=00:00:02.20 bitrate=   0.2kbits/s speed=0.0145x elapsed=0:02:31.85    \nframe=  136 fps=0.9 q=42.7 size=       0KiB time=00:00:02.23 bitrate=   0.2kbits/s speed=0.0147x elapsed=0:02:32.39    \nframe=  136 fps=0.9 q=42.7 size=       0KiB time=00:00:02.23 bitrate=   0.2kbits/s speed=0.0146x elapsed=0:02:32.91    \nframe=  137 fps=0.9 q=47.8 size=     256KiB time=00:00:02.25 bitrate= 932.2kbits/s speed=0.0147x elapsed=0:02:33.45    \nframe=  137 fps=0.9 q=47.8 size=     256KiB time=00:00:02.25 bitrate= 932.2kbits/s speed=0.0146x elapsed=0:02:34.01    \nframe=  138 fps=0.9 q=49.0 size=     256KiB time=00:00:02.26 bitrate= 925.4kbits/s speed=0.0147x elapsed=0:02:34.55    \nframe=  138 fps=0.9 q=49.0 size=     256KiB time=00:00:02.26 bitrate= 925.4kbits/s speed=0.0146x elapsed=0:02:35.07    \nframe=  138 fps=0.9 q=49.0 size=     256KiB time=00:00:02.26 bitrate= 925.4kbits/s speed=0.0146x elapsed=0:02:35.60    \nframe=  140 fps=0.9 q=42.5 size=     256KiB time=00:00:02.30 bitrate= 912.0kbits/s speed=0.0147x elapsed=0:02:36.11    \nframe=  141 fps=0.9 q=47.9 size=     256KiB time=00:00:02.31 bitrate= 905.4kbits/s speed=0.0148x elapsed=0:02:36.64    \nframe=  141 fps=0.9 q=47.9 size=     256KiB time=00:00:02.31 bitrate= 905.4kbits/s speed=0.0147x elapsed=0:02:37.18    \nframe=  141 fps=0.9 q=47.9 size=     256KiB time=00:00:02.31 bitrate= 905.4kbits/s speed=0.0147x elapsed=0:02:37.73    \nframe=  142 fps=0.9 q=48.0 size=     256KiB time=00:00:02.33 bitrate= 898.9kbits/s speed=0.0147x elapsed=0:02:38.24    \nframe=  142 fps=0.9 q=48.0 size=     256KiB time=00:00:02.33 bitrate= 898.9kbits/s speed=0.0147x elapsed=0:02:38.80    \nframe=  143 fps=0.9 q=49.0 size=     256KiB time=00:00:02.35 bitrate= 892.6kbits/s speed=0.0147x elapsed=0:02:39.34    \nframe=  144 fps=0.9 q=42.9 size=     256KiB time=00:00:02.36 bitrate= 886.3kbits/s speed=0.0148x elapsed=0:02:39.86    \nframe=  144 fps=0.9 q=42.9 size=     256KiB time=00:00:02.36 bitrate= 886.3kbits/s speed=0.0148x elapsed=0:02:40.39    \nframe=  145 fps=0.9 q=47.8 size=     256KiB time=00:00:02.38 bitrate= 880.1kbits/s speed=0.0148x elapsed=0:02:40.92    \nframe=  145 fps=0.9 q=47.8 size=     256KiB time=00:00:02.38 bitrate= 880.1kbits/s speed=0.0148x elapsed=0:02:41.44    \nframe=  146 fps=0.9 q=49.0 size=     256KiB time=00:00:02.40 bitrate= 874.0kbits/s speed=0.0148x elapsed=0:02:41.96    \nframe=  147 fps=0.9 q=48.0 size=     256KiB time=00:00:02.41 bitrate= 867.9kbits/s speed=0.0149x elapsed=0:02:42.52    \nframe=  148 fps=0.9 q=42.2 size=     256KiB time=00:00:02.43 bitrate= 862.0kbits/s speed=0.0149x elapsed=0:02:43.03    \nframe=  148 fps=0.9 q=42.2 size=     256KiB time=00:00:02.43 bitrate= 862.0kbits/s speed=0.0149x elapsed=0:02:43.57    \nframe=  149 fps=0.9 q=46.9 size=     256KiB time=00:00:02.45 bitrate= 856.1kbits/s speed=0.0149x elapsed=0:02:44.10    \nframe=  150 fps=0.9 q=48.0 size=     256KiB time=00:00:02.46 bitrate= 850.3kbits/s speed=0.015x elapsed=0:02:44.62    \nframe=  150 fps=0.9 q=48.0 size=     256KiB time=00:00:02.46 bitrate= 850.3kbits/s speed=0.0149x elapsed=0:02:45.14    \nframe=  152 fps=0.9 q=47.9 size=     256KiB time=00:00:02.50 bitrate= 839.0kbits/s speed=0.0151x elapsed=0:02:45.66    \nframe=  152 fps=0.9 q=47.9 size=     256KiB time=00:00:02.50 bitrate= 839.0kbits/s speed=0.015x elapsed=0:02:46.20    \nframe=  152 fps=0.9 q=47.9 size=     256KiB time=00:00:02.50 bitrate= 839.0kbits/s speed=0.015x elapsed=0:02:46.72    \nframe=  154 fps=0.9 q=48.0 size=     256KiB time=00:00:02.53 bitrate= 828.0kbits/s speed=0.0151x elapsed=0:02:47.25    \nframe=  155 fps=0.9 q=42.3 size=     256KiB time=00:00:02.55 bitrate= 822.6kbits/s speed=0.0152x elapsed=0:02:47.77    \nframe=  155 fps=0.9 q=42.3 size=     256KiB time=00:00:02.55 bitrate= 822.6kbits/s speed=0.0152x elapsed=0:02:48.31    \nframe=  156 fps=0.9 q=47.8 size=     256KiB time=00:00:02.56 bitrate= 817.2kbits/s speed=0.0152x elapsed=0:02:48.83    \nframe=  157 fps=0.9 q=49.0 size=     256KiB time=00:00:02.58 bitrate= 811.9kbits/s speed=0.0153x elapsed=0:02:49.35    \nframe=  158 fps=0.9 q=48.0 size=     256KiB time=00:00:02.60 bitrate= 806.7kbits/s speed=0.0153x elapsed=0:02:49.89    \nframe=  159 fps=0.9 q=42.5 size=     256KiB time=00:00:02.61 bitrate= 801.6kbits/s speed=0.0154x elapsed=0:02:50.40    \nframe=  159 fps=0.9 q=42.5 size=     256KiB time=00:00:02.61 bitrate= 801.6kbits/s speed=0.0153x elapsed=0:02:50.93    \nframe=  161 fps=0.9 q=48.0 size=     256KiB time=00:00:02.65 bitrate= 791.5kbits/s speed=0.0155x elapsed=0:02:51.45    \nframe=  163 fps=0.9 q=42.4 size=     256KiB time=00:00:02.68 bitrate= 781.7kbits/s speed=0.0156x elapsed=0:02:51.97    \nframe=  163 fps=0.9 q=42.4 size=     256KiB time=00:00:02.68 bitrate= 781.7kbits/s speed=0.0156x elapsed=0:02:52.52    \nframe=  163 fps=0.9 q=42.4 size=     256KiB time=00:00:02.68 bitrate= 781.7kbits/s speed=0.0155x elapsed=0:02:53.10    \nframe=  163 fps=0.9 q=42.4 size=     256KiB time=00:00:02.68 bitrate= 781.7kbits/s speed=0.0155x elapsed=0:02:53.62    \nframe=  163 fps=0.9 q=42.4 size=     256KiB time=00:00:02.68 bitrate= 781.7kbits/s speed=0.0154x elapsed=0:02:54.17    \nframe=  164 fps=0.9 q=47.8 size=     256KiB time=00:00:02.70 bitrate= 776.9kbits/s speed=0.0155x elapsed=0:02:54.71    \nframe=  165 fps=0.9 q=48.0 size=     256KiB time=00:00:02.71 bitrate= 772.1kbits/s speed=0.0155x elapsed=0:02:55.25    \nframe=  165 fps=0.9 q=48.0 size=     256KiB time=00:00:02.71 bitrate= 772.1kbits/s speed=0.0155x elapsed=0:02:55.77    \nframe=  167 fps=0.9 q=47.0 size=     256KiB time=00:00:02.75 bitrate= 762.7kbits/s speed=0.0156x elapsed=0:02:56.30    \nframe=  167 fps=0.9 q=47.0 size=     256KiB time=00:00:02.75 bitrate= 762.7kbits/s speed=0.0156x elapsed=0:02:56.83    \nframe=  167 fps=0.9 q=47.0 size=     256KiB time=00:00:02.75 bitrate= 762.7kbits/s speed=0.0155x elapsed=0:02:57.37    \nframe=  168 fps=0.9 q=48.0 size=     256KiB time=00:00:02.76 bitrate= 758.1kbits/s speed=0.0156x elapsed=0:02:57.91    \nframe=  168 fps=0.9 q=48.0 size=     256KiB time=00:00:02.76 bitrate= 758.1kbits/s speed=0.0155x elapsed=0:02:58.43    \nframe=  169 fps=0.9 q=48.0 size=     256KiB time=00:00:02.78 bitrate= 753.6kbits/s speed=0.0156x elapsed=0:02:58.99    \nframe=  170 fps=0.9 q=42.7 size=     256KiB time=00:00:02.80 bitrate= 749.1kbits/s speed=0.0156x elapsed=0:02:59.51    \nframe=  171 fps=0.9 q=47.7 size=     256KiB time=00:00:02.81 bitrate= 744.7kbits/s speed=0.0156x elapsed=0:03:00.04    \nframe=  171 fps=0.9 q=47.7 size=     256KiB time=00:00:02.81 bitrate= 744.7kbits/s speed=0.0156x elapsed=0:03:00.58    \nframe=  172 fps=0.9 q=49.0 size=     256KiB time=00:00:02.83 bitrate= 740.3kbits/s speed=0.0156x elapsed=0:03:01.11    \nframe=  173 fps=1.0 q=48.0 size=     256KiB time=00:00:02.85 bitrate= 736.0kbits/s speed=0.0157x elapsed=0:03:01.65    \nframe=  174 fps=1.0 q=42.3 size=     256KiB time=00:00:02.86 bitrate= 731.7kbits/s speed=0.0157x elapsed=0:03:02.17    \nframe=  174 fps=1.0 q=42.3 size=     256KiB time=00:00:02.86 bitrate= 731.7kbits/s speed=0.0157x elapsed=0:03:02.69    \nframe=  174 fps=0.9 q=42.3 size=     256KiB time=00:00:02.86 bitrate= 731.7kbits/s speed=0.0156x elapsed=0:03:03.22    \nframe=  175 fps=1.0 q=47.9 size=     256KiB time=00:00:02.88 bitrate= 727.5kbits/s speed=0.0157x elapsed=0:03:03.73    \nframe=  175 fps=0.9 q=47.9 size=     256KiB time=00:00:02.88 bitrate= 727.5kbits/s speed=0.0156x elapsed=0:03:04.26    \nframe=  176 fps=1.0 q=48.0 size=     256KiB time=00:00:02.90 bitrate= 723.3kbits/s speed=0.0157x elapsed=0:03:04.80    \nframe=  177 fps=1.0 q=42.5 size=     256KiB time=00:00:02.91 bitrate= 719.1kbits/s speed=0.0157x elapsed=0:03:05.33    \nframe=  178 fps=1.0 q=47.7 size=     256KiB time=00:00:02.93 bitrate= 715.1kbits/s speed=0.0158x elapsed=0:03:05.85    \nframe=  179 fps=1.0 q=48.0 size=     256KiB time=00:00:02.95 bitrate= 711.0kbits/s speed=0.0158x elapsed=0:03:06.37    \nframe=  180 fps=1.0 q=47.0 size=     256KiB time=00:00:02.96 bitrate= 707.0kbits/s speed=0.0159x elapsed=0:03:06.89    \nframe=  180 fps=1.0 q=47.0 size=     256KiB time=00:00:02.96 bitrate= 707.0kbits/s speed=0.0158x elapsed=0:03:07.41    \nframe=  182 fps=1.0 q=46.8 size=     256KiB time=00:00:03.00 bitrate= 699.2kbits/s speed=0.016x elapsed=0:03:07.96    \nframe=  182 fps=1.0 q=46.8 size=     256KiB time=00:00:03.00 bitrate= 699.2kbits/s speed=0.0159x elapsed=0:03:08.49    \nframe=  182 fps=1.0 q=46.8 size=     256KiB time=00:00:03.00 bitrate= 699.2kbits/s speed=0.0159x elapsed=0:03:09.03    \nframe=  183 fps=1.0 q=48.0 size=     256KiB time=00:00:03.01 bitrate= 695.3kbits/s speed=0.0159x elapsed=0:03:09.55    \nframe=  184 fps=1.0 q=48.0 size=     256KiB time=00:00:03.03 bitrate= 691.5kbits/s speed=0.016x elapsed=0:03:10.07    \nframe=  186 fps=1.0 q=47.8 size=     256KiB time=00:00:03.06 bitrate= 684.0kbits/s speed=0.0161x elapsed=0:03:10.58    \nframe=  186 fps=1.0 q=47.8 size=     256KiB time=00:00:03.06 bitrate= 684.0kbits/s speed=0.016x elapsed=0:03:11.12    \nframe=  186 fps=1.0 q=47.8 size=     256KiB time=00:00:03.06 bitrate= 684.0kbits/s speed=0.016x elapsed=0:03:11.63    \nframe=  186 fps=1.0 q=47.8 size=     256KiB time=00:00:03.06 bitrate= 684.0kbits/s speed=0.016x elapsed=0:03:12.16    \nframe=  188 fps=1.0 q=47.0 size=     256KiB time=00:00:03.10 bitrate= 676.6kbits/s speed=0.0161x elapsed=0:03:12.68    \nframe=  188 fps=1.0 q=47.0 size=     256KiB time=00:00:03.10 bitrate= 676.6kbits/s speed=0.016x elapsed=0:03:13.20    \nframe=  188 fps=1.0 q=47.0 size=     256KiB time=00:00:03.10 bitrate= 676.6kbits/s speed=0.016x elapsed=0:03:13.71    \nframe=  189 fps=1.0 q=42.1 size=     256KiB time=00:00:03.11 bitrate= 673.0kbits/s speed=0.016x elapsed=0:03:14.23    \nframe=  189 fps=1.0 q=42.1 size=     256KiB time=00:00:03.11 bitrate= 673.0kbits/s speed=0.016x elapsed=0:03:14.75    \nframe=  190 fps=1.0 q=46.9 size=     256KiB time=00:00:03.13 bitrate= 669.4kbits/s speed=0.016x elapsed=0:03:15.29    \nframe=  190 fps=1.0 q=46.9 size=     256KiB time=00:00:03.13 bitrate= 669.4kbits/s speed=0.016x elapsed=0:03:15.85    \nframe=  190 fps=1.0 q=46.9 size=     256KiB time=00:00:03.13 bitrate= 669.4kbits/s speed=0.016x elapsed=0:03:16.39    \nframe=  191 fps=1.0 q=48.0 size=     256KiB time=00:00:03.15 bitrate= 665.9kbits/s speed=0.016x elapsed=0:03:16.89    \nframe=  191 fps=1.0 q=48.0 size=     256KiB time=00:00:03.15 bitrate= 665.9kbits/s speed=0.016x elapsed=0:03:17.42    \nframe=  192 fps=1.0 q=42.3 size=     256KiB time=00:00:03.16 bitrate= 662.4kbits/s speed=0.016x elapsed=0:03:17.94    \nframe=  192 fps=1.0 q=42.3 size=     256KiB time=00:00:03.16 bitrate= 662.4kbits/s speed=0.016x elapsed=0:03:18.48    \nframe=  193 fps=1.0 q=46.9 size=     256KiB time=00:00:03.18 bitrate= 658.9kbits/s speed=0.016x elapsed=0:03:19.00    \nframe=  193 fps=1.0 q=46.9 size=     256KiB time=00:00:03.18 bitrate= 658.9kbits/s speed=0.016x elapsed=0:03:19.53    \nframe=  194 fps=1.0 q=48.0 size=     256KiB time=00:00:03.20 bitrate= 655.5kbits/s speed=0.016x elapsed=0:03:20.08    \nframe=  194 fps=1.0 q=48.0 size=     256KiB time=00:00:03.20 bitrate= 655.5kbits/s speed=0.016x elapsed=0:03:20.59    \nframe=  194 fps=1.0 q=48.0 size=     256KiB time=00:00:03.20 bitrate= 655.5kbits/s speed=0.0159x elapsed=0:03:21.11    \nframe=  195 fps=1.0 q=47.0 size=     256KiB time=00:00:03.21 bitrate= 652.1kbits/s speed=0.016x elapsed=0:03:21.67    \nframe=  195 fps=1.0 q=47.0 size=     256KiB time=00:00:03.21 bitrate= 652.1kbits/s speed=0.0159x elapsed=0:03:22.17    \nframe=  195 fps=1.0 q=47.0 size=     256KiB time=00:00:03.21 bitrate= 652.1kbits/s speed=0.0159x elapsed=0:03:22.71    \nframe=  197 fps=1.0 q=47.8 size=     256KiB time=00:00:03.25 bitrate= 645.4kbits/s speed=0.016x elapsed=0:03:23.25    \nframe=  198 fps=1.0 q=48.0 size=     256KiB time=00:00:03.26 bitrate= 642.1kbits/s speed=0.016x elapsed=0:03:23.79    \nframe=  199 fps=1.0 q=48.0 size=     256KiB time=00:00:03.28 bitrate= 638.8kbits/s speed=0.0161x elapsed=0:03:24.34    \nframe=  200 fps=1.0 q=42.6 size=     256KiB time=00:00:03.30 bitrate= 635.6kbits/s speed=0.0161x elapsed=0:03:24.84    \nframe=  200 fps=1.0 q=42.6 size=     256KiB time=00:00:03.30 bitrate= 635.6kbits/s speed=0.0161x elapsed=0:03:25.39    \nframe=  200 fps=1.0 q=42.6 size=     256KiB time=00:00:03.30 bitrate= 635.6kbits/s speed=0.016x elapsed=0:03:25.93    \nframe=  200 fps=1.0 q=42.6 size=     256KiB time=00:00:03.30 bitrate= 635.6kbits/s speed=0.016x elapsed=0:03:26.46    \nframe=  201 fps=1.0 q=47.7 size=     256KiB time=00:00:03.31 bitrate= 632.4kbits/s speed=0.016x elapsed=0:03:26.98    \nframe=  201 fps=1.0 q=47.7 size=     256KiB time=00:00:03.31 bitrate= 632.4kbits/s speed=0.016x elapsed=0:03:27.52    \nframe=  201 fps=1.0 q=47.7 size=     256KiB time=00:00:03.31 bitrate= 632.4kbits/s speed=0.0159x elapsed=0:03:28.03    \nframe=  201 fps=1.0 q=47.7 size=     256KiB time=00:00:03.31 bitrate= 632.4kbits/s speed=0.0159x elapsed=0:03:28.56    \nframe=  202 fps=1.0 q=48.0 size=     256KiB time=00:00:03.33 bitrate= 629.3kbits/s speed=0.0159x elapsed=0:03:29.08    \nframe=  202 fps=1.0 q=48.0 size=     256KiB time=00:00:03.33 bitrate= 629.3kbits/s speed=0.0159x elapsed=0:03:29.60    \nframe=  203 fps=1.0 q=47.0 size=     256KiB time=00:00:03.35 bitrate= 626.1kbits/s speed=0.0159x elapsed=0:03:30.11    \nframe=  204 fps=1.0 q=42.1 size=     256KiB time=00:00:03.36 bitrate= 623.0kbits/s speed=0.016x elapsed=0:03:30.64    \nframe=  204 fps=1.0 q=42.1 size=     256KiB time=00:00:03.36 bitrate= 623.0kbits/s speed=0.0159x elapsed=0:03:31.16    \nframe=  204 fps=1.0 q=42.1 size=     256KiB time=00:00:03.36 bitrate= 623.0kbits/s speed=0.0159x elapsed=0:03:31.68    \nframe=  204 fps=1.0 q=42.1 size=     256KiB time=00:00:03.36 bitrate= 623.0kbits/s speed=0.0159x elapsed=0:03:32.20    \nframe=  205 fps=1.0 q=46.7 size=     256KiB time=00:00:03.38 bitrate= 620.0kbits/s speed=0.0159x elapsed=0:03:32.72    \nframe=  205 fps=1.0 q=46.7 size=     256KiB time=00:00:03.38 bitrate= 620.0kbits/s speed=0.0159x elapsed=0:03:33.24    \nframe=  206 fps=1.0 q=47.0 size=     256KiB time=00:00:03.40 bitrate= 616.9kbits/s speed=0.0159x elapsed=0:03:33.77    \nframe=  208 fps=1.0 q=42.1 size=     256KiB time=00:00:03.43 bitrate= 610.9kbits/s speed=0.016x elapsed=0:03:34.29    \nframe=  209 fps=1.0 q=46.8 size=     256KiB time=00:00:03.45 bitrate= 608.0kbits/s speed=0.0161x elapsed=0:03:34.80    \nframe=  209 fps=1.0 q=46.8 size=     256KiB time=00:00:03.45 bitrate= 608.0kbits/s speed=0.016x elapsed=0:03:35.34    \nframe=  209 fps=1.0 q=46.8 size=     256KiB time=00:00:03.45 bitrate= 608.0kbits/s speed=0.016x elapsed=0:03:35.87    \nframe=  209 fps=1.0 q=46.8 size=     256KiB time=00:00:03.45 bitrate= 608.0kbits/s speed=0.0159x elapsed=0:03:36.41    \nframe=  211 fps=1.0 q=48.0 size=     256KiB time=00:00:03.48 bitrate= 602.2kbits/s speed=0.0161x elapsed=0:03:36.96    \nframe=  211 fps=1.0 q=48.0 size=     256KiB time=00:00:03.48 bitrate= 602.2kbits/s speed=0.016x elapsed=0:03:37.48    \nframe=  212 fps=1.0 q=42.0 size=     256KiB time=00:00:03.50 bitrate= 599.3kbits/s speed=0.0161x elapsed=0:03:38.01    \nframe=  214 fps=1.0 q=42.1 size=     256KiB time=00:00:03.53 bitrate= 593.6kbits/s speed=0.0162x elapsed=0:03:38.53    \nframe=  215 fps=1.0 q=47.6 size=     256KiB time=00:00:03.55 bitrate= 590.8kbits/s speed=0.0162x elapsed=0:03:39.04    \nframe=  215 fps=1.0 q=47.6 size=     256KiB time=00:00:03.55 bitrate= 590.8kbits/s speed=0.0162x elapsed=0:03:39.55    \nframe=  216 fps=1.0 q=48.0 size=     256KiB time=00:00:03.56 bitrate= 588.1kbits/s speed=0.0162x elapsed=0:03:40.08    \nframe=  217 fps=1.0 q=48.0 size=     256KiB time=00:00:03.58 bitrate= 585.4kbits/s speed=0.0162x elapsed=0:03:40.60    \nframe=  219 fps=1.0 q=47.7 size=     256KiB time=00:00:03.61 bitrate= 580.0kbits/s speed=0.0164x elapsed=0:03:41.12    \nframe=  219 fps=1.0 q=47.7 size=     256KiB time=00:00:03.61 bitrate= 580.0kbits/s speed=0.0163x elapsed=0:03:41.63    \nframe=  220 fps=1.0 q=49.0 size=     256KiB time=00:00:03.63 bitrate= 577.3kbits/s speed=0.0164x elapsed=0:03:42.14    \nframe=  221 fps=1.0 q=47.0 size=     256KiB time=00:00:03.65 bitrate= 574.7kbits/s speed=0.0164x elapsed=0:03:42.66    \nframe=  223 fps=1.0 q=46.9 size=     256KiB time=00:00:03.68 bitrate= 569.5kbits/s speed=0.0165x elapsed=0:03:43.25    \nframe=  224 fps=1.0 q=48.0 size=     256KiB time=00:00:03.70 bitrate= 566.9kbits/s speed=0.0165x elapsed=0:03:43.78    \nframe=  225 fps=1.0 q=47.0 size=     256KiB time=00:00:03.71 bitrate= 564.4kbits/s speed=0.0166x elapsed=0:03:44.31    \nframe=  225 fps=1.0 q=47.0 size=     256KiB time=00:00:03.71 bitrate= 564.4kbits/s speed=0.0165x elapsed=0:03:44.84    \nframe=  226 fps=1.0 q=41.9 size=     256KiB time=00:00:03.73 bitrate= 561.8kbits/s speed=0.0166x elapsed=0:03:45.37    \nframe=  227 fps=1.0 q=46.9 size=     256KiB time=00:00:03.75 bitrate= 559.3kbits/s speed=0.0166x elapsed=0:03:45.88    \nframe=  228 fps=1.0 q=48.0 size=     256KiB time=00:00:03.76 bitrate= 556.9kbits/s speed=0.0166x elapsed=0:03:46.40    \nframe=  228 fps=1.0 q=48.0 size=     256KiB time=00:00:03.76 bitrate= 556.9kbits/s speed=0.0166x elapsed=0:03:46.96    \nframe=  229 fps=1.0 q=47.0 size=     256KiB time=00:00:03.78 bitrate= 554.4kbits/s speed=0.0166x elapsed=0:03:47.54    \nframe=  230 fps=1.0 q=43.1 size=     256KiB time=00:00:03.80 bitrate= 552.0kbits/s speed=0.0167x elapsed=0:03:48.06    \nframe=  231 fps=1.0 q=49.0 size=     256KiB time=00:00:03.81 bitrate= 549.6kbits/s speed=0.0167x elapsed=0:03:48.56    \nframe=  231 fps=1.0 q=49.0 size=     256KiB time=00:00:03.81 bitrate= 549.6kbits/s speed=0.0167x elapsed=0:03:49.09    \nframe=  232 fps=1.0 q=50.0 size=     256KiB time=00:00:03.83 bitrate= 547.2kbits/s speed=0.0167x elapsed=0:03:49.61    \nframe=  233 fps=1.0 q=50.0 size=     256KiB time=00:00:03.85 bitrate= 544.8kbits/s speed=0.0167x elapsed=0:03:50.11    \nframe=  233 fps=1.0 q=50.0 size=     256KiB time=00:00:03.85 bitrate= 544.8kbits/s speed=0.0167x elapsed=0:03:50.68    \nframe=  234 fps=1.0 q=43.0 size=     256KiB time=00:00:03.86 bitrate= 542.5kbits/s speed=0.0167x elapsed=0:03:51.26    \nframe=  235 fps=1.0 q=48.9 size=     256KiB time=00:00:03.88 bitrate= 540.1kbits/s speed=0.0168x elapsed=0:03:51.77    \nframe=  235 fps=1.0 q=48.9 size=     256KiB time=00:00:03.88 bitrate= 540.1kbits/s speed=0.0167x elapsed=0:03:52.33    \nframe=  236 fps=1.0 q=50.0 size=     256KiB time=00:00:03.90 bitrate= 537.8kbits/s speed=0.0167x elapsed=0:03:52.86    \nframe=  238 fps=1.0 q=42.7 size=     256KiB time=00:00:03.93 bitrate= 533.3kbits/s speed=0.0169x elapsed=0:03:53.39    \nframe=  239 fps=1.0 q=49.0 size=     256KiB time=00:00:03.95 bitrate= 531.0kbits/s speed=0.0169x elapsed=0:03:53.91    \nframe=  239 fps=1.0 q=49.0 size=     256KiB time=00:00:03.95 bitrate= 531.0kbits/s speed=0.0168x elapsed=0:03:54.44    \nframe=  240 fps=1.0 q=50.0 size=     256KiB time=00:00:03.96 bitrate= 528.8kbits/s speed=0.0169x elapsed=0:03:54.96    \nframe=  241 fps=1.0 q=50.0 size=     256KiB time=00:00:03.98 bitrate= 526.6kbits/s speed=0.0169x elapsed=0:03:55.47    \nframe=  243 fps=1.0 q=48.0 size=     256KiB time=00:00:04.01 bitrate= 522.2kbits/s speed=0.017x elapsed=0:03:55.99    \nframe=  243 fps=1.0 q=48.0 size=     256KiB time=00:00:04.01 bitrate= 522.2kbits/s speed=0.017x elapsed=0:03:56.53    \nframe=  243 fps=1.0 q=48.0 size=     256KiB time=00:00:04.01 bitrate= 522.2kbits/s speed=0.0169x elapsed=0:03:57.05    \nframe=  245 fps=1.0 q=49.0 size=     256KiB time=00:00:04.05 bitrate= 517.9kbits/s speed=0.017x elapsed=0:03:57.57    \nframe=  246 fps=1.0 q=50.0 size=     256KiB time=00:00:04.06 bitrate= 515.8kbits/s speed=0.0171x elapsed=0:03:58.08    \nframe=  246 fps=1.0 q=50.0 size=     256KiB time=00:00:04.06 bitrate= 515.8kbits/s speed=0.017x elapsed=0:03:58.60    \nframe=  248 fps=1.0 q=47.9 size=     256KiB time=00:00:04.10 bitrate= 511.6kbits/s speed=0.0171x elapsed=0:03:59.14    \nframe=  248 fps=1.0 q=47.9 size=     256KiB time=00:00:04.10 bitrate= 511.6kbits/s speed=0.0171x elapsed=0:03:59.64    \nframe=  248 fps=1.0 q=47.9 size=     256KiB time=00:00:04.10 bitrate= 511.6kbits/s speed=0.0171x elapsed=0:04:00.17    \nframe=  249 fps=1.0 q=49.0 size=     256KiB time=00:00:04.11 bitrate= 509.5kbits/s speed=0.0171x elapsed=0:04:00.69    \nframe=  249 fps=1.0 q=49.0 size=     256KiB time=00:00:04.11 bitrate= 509.5kbits/s speed=0.0171x elapsed=0:04:01.21    \nframe=  250 fps=1.0 q=49.0 size=     256KiB time=00:00:04.13 bitrate= 507.5kbits/s speed=0.0171x elapsed=0:04:01.72    \nframe=  250 fps=1.0 q=49.0 size=     256KiB time=00:00:04.13 bitrate= 507.5kbits/s speed=0.0171x elapsed=0:04:02.24    \nframe=  250 fps=1.0 q=49.0 size=     256KiB time=00:00:04.13 bitrate= 507.5kbits/s speed=0.017x elapsed=0:04:02.77    \nframe=  250 fps=1.0 q=49.0 size=     256KiB time=00:00:04.13 bitrate= 507.5kbits/s speed=0.017x elapsed=0:04:03.29    \nframe=  250 fps=1.0 q=49.0 size=     256KiB time=00:00:04.13 bitrate= 507.5kbits/s speed=0.017x elapsed=0:04:03.81    \nframe=  251 fps=1.0 q=45.0 size=     256KiB time=00:00:04.15 bitrate= 505.4kbits/s speed=0.017x elapsed=0:04:04.38    \nframe=  253 fps=1.0 q=49.6 size=     512KiB time=00:00:04.18 bitrate=1002.7kbits/s speed=0.0171x elapsed=0:04:04.92    \nframe=  253 fps=1.0 q=49.6 size=     512KiB time=00:00:04.18 bitrate=1002.7kbits/s speed=0.017x elapsed=0:04:05.43    \nframe=  255 fps=1.0 q=51.0 size=     512KiB time=00:00:04.21 bitrate= 994.8kbits/s speed=0.0171x elapsed=0:04:05.96    \nframe=  255 fps=1.0 q=51.0 size=     512KiB time=00:00:04.21 bitrate= 994.8kbits/s speed=0.0171x elapsed=0:04:06.50    \nframe=  257 fps=1.0 q=51.0 size=     512KiB time=00:00:04.25 bitrate= 987.0kbits/s speed=0.0172x elapsed=0:04:07.02    \nframe=  257 fps=1.0 q=51.0 size=     512KiB time=00:00:04.25 bitrate= 987.0kbits/s speed=0.0172x elapsed=0:04:07.55    \nframe=  258 fps=1.0 q=51.0 size=     512KiB time=00:00:04.26 bitrate= 983.1kbits/s speed=0.0172x elapsed=0:04:08.08    \nframe=  259 fps=1.0 q=51.0 size=     512KiB time=00:00:04.28 bitrate= 979.3kbits/s speed=0.0172x elapsed=0:04:08.60    \nframe=  261 fps=1.0 q=51.0 size=     512KiB time=00:00:04.31 bitrate= 971.7kbits/s speed=0.0173x elapsed=0:04:09.13    \nframe=  262 fps=1.0 q=51.0 size=     512KiB time=00:00:04.33 bitrate= 968.0kbits/s speed=0.0174x elapsed=0:04:09.66    \nframe=  263 fps=1.1 q=51.0 size=     512KiB time=00:00:04.35 bitrate= 964.3kbits/s speed=0.0174x elapsed=0:04:10.18    \nframe=  265 fps=1.1 q=43.5 size=     512KiB time=00:00:04.38 bitrate= 957.0kbits/s speed=0.0175x elapsed=0:04:10.69    \nframe=  265 fps=1.1 q=43.5 size=     512KiB time=00:00:04.38 bitrate= 957.0kbits/s speed=0.0174x elapsed=0:04:11.23    \nframe=  267 fps=1.1 q=51.0 size=     512KiB time=00:00:04.41 bitrate= 949.7kbits/s speed=0.0175x elapsed=0:04:11.75    \nframe=  268 fps=1.1 q=51.0 size=     512KiB time=00:00:04.43 bitrate= 946.2kbits/s speed=0.0176x elapsed=0:04:12.25    \nframe=  269 fps=1.1 q=43.9 size=     512KiB time=00:00:04.45 bitrate= 942.6kbits/s speed=0.0176x elapsed=0:04:12.78    \nframe=  270 fps=1.1 q=50.0 size=     512KiB time=00:00:04.46 bitrate= 939.1kbits/s speed=0.0176x elapsed=0:04:13.29    \nframe=  271 fps=1.1 q=51.0 size=     512KiB time=00:00:04.48 bitrate= 935.6kbits/s speed=0.0177x elapsed=0:04:13.82    \nframe=  272 fps=1.1 q=51.0 size=     512KiB time=00:00:04.50 bitrate= 932.1kbits/s speed=0.0177x elapsed=0:04:14.33    \nframe=  273 fps=1.1 q=44.1 size=     512KiB time=00:00:04.51 bitrate= 928.7kbits/s speed=0.0177x elapsed=0:04:14.87    \nframe=  274 fps=1.1 q=49.9 size=     512KiB time=00:00:04.53 bitrate= 925.3kbits/s speed=0.0178x elapsed=0:04:15.38    \nframe=  274 fps=1.1 q=49.9 size=     512KiB time=00:00:04.53 bitrate= 925.3kbits/s speed=0.0177x elapsed=0:04:15.90    \nframe=  275 fps=1.1 q=51.0 size=     512KiB time=00:00:04.55 bitrate= 921.9kbits/s speed=0.0177x elapsed=0:04:16.45    \nframe=  275 fps=1.1 q=51.0 size=     512KiB time=00:00:04.55 bitrate= 921.9kbits/s speed=0.0177x elapsed=0:04:17.02    \nframe=  275 fps=1.1 q=51.0 size=     512KiB time=00:00:04.55 bitrate= 921.9kbits/s speed=0.0177x elapsed=0:04:17.59    \nframe=  275 fps=1.1 q=51.0 size=     512KiB time=00:00:04.55 bitrate= 921.9kbits/s speed=0.0176x elapsed=0:04:18.17    \nframe=  275 fps=1.1 q=51.0 size=     512KiB time=00:00:04.55 bitrate= 921.9kbits/s speed=0.0176x elapsed=0:04:18.73    \nframe=  275 fps=1.1 q=51.0 size=     512KiB time=00:00:04.55 bitrate= 921.9kbits/s speed=0.0175x elapsed=0:04:19.31    \nframe=  275 fps=1.1 q=51.0 size=     512KiB time=00:00:04.55 bitrate= 921.9kbits/s speed=0.0175x elapsed=0:04:19.87    \nframe=  276 fps=1.1 q=51.0 size=     512KiB time=00:00:04.56 bitrate= 918.5kbits/s speed=0.0175x elapsed=0:04:20.44    \nframe=  276 fps=1.1 q=51.0 size=     512KiB time=00:00:04.56 bitrate= 918.5kbits/s speed=0.0175x elapsed=0:04:21.00    \nframe=  277 fps=1.1 q=43.6 size=     512KiB time=00:00:04.58 bitrate= 915.2kbits/s speed=0.0175x elapsed=0:04:21.51    \nframe=  278 fps=1.1 q=50.0 size=     512KiB time=00:00:04.60 bitrate= 911.9kbits/s speed=0.0176x elapsed=0:04:22.04    \nframe=  280 fps=1.1 q=50.0 size=     512KiB time=00:00:04.63 bitrate= 905.3kbits/s speed=0.0176x elapsed=0:04:22.56    \nframe=  280 fps=1.1 q=50.0 size=     512KiB time=00:00:04.63 bitrate= 905.3kbits/s speed=0.0176x elapsed=0:04:23.07    \nframe=  282 fps=1.1 q=48.9 size=     512KiB time=00:00:04.66 bitrate= 898.9kbits/s speed=0.0177x elapsed=0:04:23.59    \nframe=  284 fps=1.1 q=49.0 size=     512KiB time=00:00:04.70 bitrate= 892.5kbits/s speed=0.0178x elapsed=0:04:24.10    \nframe=  286 fps=1.1 q=49.0 size=     512KiB time=00:00:04.73 bitrate= 886.2kbits/s speed=0.0179x elapsed=0:04:24.62    \nframe=  287 fps=1.1 q=49.0 size=     512KiB time=00:00:04.75 bitrate= 883.1kbits/s speed=0.0179x elapsed=0:04:25.12    \nframe=  289 fps=1.1 q=43.6 size=     512KiB time=00:00:04.78 bitrate= 876.9kbits/s speed=0.018x elapsed=0:04:25.65    \nframe=  290 fps=1.1 q=47.6 size=     512KiB time=00:00:04.80 bitrate= 873.9kbits/s speed=0.018x elapsed=0:04:26.17    \nframe=  293 fps=1.1 q=43.7 size=     512KiB time=00:00:04.85 bitrate= 864.9kbits/s speed=0.0182x elapsed=0:04:26.67    \nframe=  294 fps=1.1 q=44.9 size=     512KiB time=00:00:04.86 bitrate= 861.9kbits/s speed=0.0182x elapsed=0:04:27.19    \nframe=  296 fps=1.1 q=46.0 size=     512KiB time=00:00:04.90 bitrate= 856.1kbits/s speed=0.0183x elapsed=0:04:27.71    \nframe=  297 fps=1.1 q=42.7 size=     512KiB time=00:00:04.91 bitrate= 853.2kbits/s speed=0.0183x elapsed=0:04:28.22    \nframe=  297 fps=1.1 q=42.7 size=     512KiB time=00:00:04.91 bitrate= 853.2kbits/s speed=0.0183x elapsed=0:04:28.74    \nframe=  297 fps=1.1 q=42.7 size=     512KiB time=00:00:04.91 bitrate= 853.2kbits/s speed=0.0183x elapsed=0:04:29.28    \nframe=  298 fps=1.1 q=42.8 size=     512KiB time=00:00:04.93 bitrate= 850.3kbits/s speed=0.0183x elapsed=0:04:29.82    \n[mp4 @ 000002a269c0f140] Starting second pass: moving the moov atom to the beginning of the file\n[out#0/mp4 @ 000002a269c0f040] video:595KiB audio:0KiB subtitle:0KiB other streams:0KiB global headers:2KiB muxing overhead: 1.187760%\nframe=  300 fps=1.1 q=42.9 Lsize=     603KiB time=00:00:04.96 bitrate= 993.8kbits/s speed=0.0184x elapsed=0:04:30.12    \nx265 [info]: frame I:      2, Avg QP:47.42  kb/s: 12778.32\nx265 [info]: frame P:     77, Avg QP:43.70  kb/s: 3059.12 \nx265 [info]: frame B:    221, Avg QP:48.89  kb/s: 140.18  \nx265 [info]: Weighted P-Frames: Y:0.0% UV:0.0%\n\nencoded 300 frames in 269.14s (1.11 fps), 973.63 kb/s, Avg QP:47.55\n",
  "seconds": 270.79152488708496,
  "probe_out": {}
}